<svg width="150" height="58" viewBox="0 0 150 58" fill="none" xmlns="http://www.w3.org/2000/svg">
    <path fill-rule="evenodd" clip-rule="evenodd" d="M41.162 37.852V20.271h1.862v17.581h-1.862zm-.155-23.58v-2.275h2.275v2.275h-2.275zM59.779 37.852v-10.91c0-3.517-1.603-5.224-4.81-5.224-1.55 0-2.792.414-3.671 1.345-.827.879-1.241 2.172-1.241 3.826v10.963h-1.862V20.27h1.862v2.069c1.241-1.5 3-2.275 5.171-2.275 2.017 0 3.568.568 4.706 1.758 1.19 1.189 1.758 2.792 1.758 4.757v11.273h-1.913zM69.034 21.719v16.134h-1.861V21.719h-2.38V20.27h2.38v-3.723c0-1.397.413-2.482 1.137-3.362.724-.827 1.758-1.24 3.103-1.24h1.603v1.602h-1.293c-1.758 0-2.689.983-2.689 2.896v3.827h3.982v1.396l-3.982.052zM86.72 22.029c-1.241-1.293-2.896-1.965-4.861-1.965-1.965 0-3.62.62-4.861 1.965-1.448 1.396-2.172 3.774-2.172 7.032 0 3.206.724 5.585 2.172 6.981 1.241 1.293 2.896 1.965 4.86 1.965 1.966 0 3.62-.62 4.862-1.965 1.448-1.396 2.172-3.775 2.172-6.98 0-3.207-.724-5.586-2.172-7.034zm-1.19 12.823c-.982 1.035-2.224 1.5-3.671 1.5-1.397 0-2.69-.465-3.62-1.5-1.034-1.034-1.552-2.947-1.552-5.791 0-2.844.518-4.81 1.552-5.844.982-1.034 2.223-1.5 3.62-1.5 1.396 0 2.689.466 3.671 1.5 1.034 1.035 1.551 2.948 1.551 5.844 0 2.844-.568 4.809-1.55 5.791zM103.422 19.96v2.07c-1.086-1.397-2.585-2.173-4.447-2.276-.207 0-.414-.052-.569-.052-1.861 0-3.31.517-4.344 1.603-1.447 1.396-2.171 3.93-2.171 7.447 0 3.516.724 5.998 2.171 7.446 1.086 1.086 2.534 1.603 4.344 1.603.207 0 .414 0 .57-.052 1.861-.103 3.36-.879 4.446-2.275v2.844c0 1.603-.413 2.896-1.189 3.879-.724.93-1.862 1.447-3.258 1.55h-.465c-.983 0-1.759-.154-2.43-.413a11.244 11.244 0 0 1-1.862-1.293l-1.707 1.655c.983.88 1.913 1.5 2.793 1.862.879.413 2.016.517 3.31.517h.413c2.068-.052 3.775-.776 5.067-2.12 1.293-1.396 2.017-3.258 2.017-5.482V19.961h-2.689zm-.775 13.342c-.672 1.397-1.965 2.069-3.672 2.069-1.758 0-2.999-.672-3.671-2.069-.517-1.034-.776-2.534-.776-4.55 0-2.017.259-3.62.776-4.602.672-1.345 1.965-2.069 3.671-2.069 1.759 0 3 .672 3.672 2.069.465 1.034.724 2.585.724 4.602.052 2.017-.207 3.568-.724 4.55zM116.402 19.702c-1.5 0-2.741.207-3.672.569-1.034.414-1.965 1.138-2.74 2.068l1.81 1.655c.982-1.344 2.482-2.017 4.498-2.017h.052c2.999 0 4.499 1.293 4.499 3.93v1.707h-5.378c-1.965 0-3.465.414-4.551 1.345-1.086.93-1.603 2.171-1.603 3.774 0 1.5.414 2.741 1.345 3.62 1.086 1.138 2.741 1.655 5.068 1.655h.62c1.862-.155 3.361-.776 4.499-1.965v1.81h2.637V25.7c.052-3.93-2.327-5.947-7.084-5.999zm4.499 11.842c0 1.448-.31 2.482-.931 3.051-.775.724-1.965 1.138-3.62 1.19h-.413c-2.741 0-4.137-1.035-4.137-3.051 0-2.069 1.344-3.155 4.033-3.155h4.965v1.965h.103zM130.674 37.853h-2.637V19.961h2.637v17.892zm.207-23.012h-2.947v-2.896h2.947v2.896zM149.497 37.853h-2.637V26.787c0-3.155-1.448-4.758-4.396-4.758-1.396 0-2.482.414-3.257 1.241-.776.828-1.19 2.017-1.19 3.517v11.066h-2.637V19.96h2.637v1.965c1.241-1.448 2.896-2.172 5.016-2.172 1.913 0 3.465.569 4.551 1.706 1.189 1.19 1.861 2.845 1.861 4.965l.052 11.428zM19.909 38.06l-7.188-5.74 14.066 8.066s-5.585.31-11.739-1.655C8.43 36.663.776 33.457.466 28.7c-.259-3.05 6.153-4.447 13.548-2.689 11.066 2.586 23.684 9.567 16.6 13.187 3.722-3.103-3.827-7.292-7.189-8.636-6.515-2.689-12.255-3.206-15.461-2.896-2.327.259-3.672 1.293-3.051 3 1.034 2.637 5.274 5.998 14.996 7.394zM26.115 0c2.068 0 3.775 1.706 3.775 3.775 0 2.12-1.707 3.827-3.775 3.827-2.069 0-3.775-1.707-3.775-3.827A3.763 3.763 0 0 1 26.115 0z" fill="#fff"/>
    <path fill-rule="evenodd" clip-rule="evenodd" d="m23.115 9.929 3.723 30.406 2.793-30.406c-1.965 1.965-4.447 2.172-6.516 0z" fill="#fff"/>
    <path d="M26.993 47.73h3.879v.879H27.82v2.068h2.845v.88H27.82v2.223h3.207v.879h-4.034v-6.93zM32.009 50.056h.775v.725c.104-.26.259-.466.517-.621.259-.155.518-.207.828-.207.207 0 .362.052.569.103.155.052.31.156.465.31.155.156.259.311.31.57.104.206.104.517.104.827v3H34.8v-2.741c0-.207 0-.414-.052-.57a.832.832 0 0 0-.207-.361c-.103-.104-.206-.155-.31-.207-.103-.052-.207-.052-.362-.052s-.31.052-.465.104c-.155.051-.259.155-.362.258-.103.104-.207.31-.259.466a2.397 2.397 0 0 0-.103.724v2.378h-.776v-4.706h.104z" fill="#fff"/>
    <path fill-rule="evenodd" clip-rule="evenodd" d="M40.593 55.641c.103-.31.155-.62.155-.982v-4.654h-.776v.672c-.155-.258-.361-.414-.62-.569a1.46 1.46 0 0 0-.776-.207c-.31 0-.569.104-.827.207-.207.104-.466.31-.62.517-.156.207-.31.466-.414.776a3.011 3.011 0 0 0 0 1.913c.103.31.206.57.413.776.207.207.414.414.673.517.258.155.517.207.827.207.259 0 .517-.052.776-.207.258-.155.465-.362.62-.62v.672c0 .155 0 .362-.052.569-.051.206-.155.362-.258.517-.155.155-.259.258-.465.362a1.652 1.652 0 0 1-.724.155c-.259 0-.57-.104-.776-.207-.207-.155-.414-.31-.62-.569l-.518.724c.31.31.62.569.931.672.31.156.672.207 1.034.207.31 0 .62-.051.88-.155a3.32 3.32 0 0 0 .672-.517c.206-.207.362-.465.465-.776zm-2.432-4.835c.16-.042.295-.078.467-.078.206 0 .413.052.569.104.155.052.31.155.413.31.104.155.207.31.259.517.051.207.103.414.103.673 0 .465-.103.827-.362 1.137a1.324 1.324 0 0 1-.982.414c-.414 0-.724-.104-.983-.414-.258-.31-.362-.672-.362-1.137 0-.259.052-.466.104-.673.051-.206.155-.362.258-.517.104-.103.259-.207.414-.31l.102-.026zM41.937 47.885a.833.833 0 0 0-.155.465c0 .207.052.362.155.465.156.156.259.207.414.207.155 0 .31-.103.414-.207a.834.834 0 0 0 .155-.465c0-.207-.052-.362-.155-.465-.155-.156-.259-.207-.414-.207-.155 0-.31.103-.414.207zm.776 2.172h-.776v4.654h.776v-4.654z" fill="#fff"/>
    <path d="M43.902 50.056h.776v.725c.103-.26.259-.466.517-.621.259-.155.517-.207.827-.207.207 0 .362.052.57.103.154.052.31.156.465.31.155.156.258.311.31.57.103.206.103.517.103.827v3h-.775v-2.741c0-.207 0-.414-.052-.57a.833.833 0 0 0-.207-.361 1.079 1.079 0 0 0-.31-.207c-.104-.052-.207-.052-.362-.052s-.31.052-.466.104c-.155.051-.258.155-.361.258-.104.104-.207.31-.26.466a2.398 2.398 0 0 0-.102.724v2.378h-.776v-4.706h.103z" fill="#fff"/>
    <path fill-rule="evenodd" clip-rule="evenodd" d="M49.332 53.263a1.86 1.86 0 0 1-.103-.57v-.154h3.154v-.31c0-.272-.04-.503-.084-.764a18.413 18.413 0 0 1-.02-.116c-.103-.258-.206-.517-.361-.775-.155-.259-.362-.414-.62-.57-.208-.154-.518-.206-.88-.206-.31 0-.569.103-.827.207-.259.103-.466.31-.673.517-.155.207-.31.465-.413.776a3.01 3.01 0 0 0-.155.982c0 .362.051.672.155.983.103.31.258.568.413.775.207.207.414.414.673.517.258.155.569.207.879.207.724 0 1.344-.31 1.758-.93l-.569-.518c-.103.207-.31.414-.465.517-.155.155-.362.207-.62.207-.208 0-.363-.051-.518-.103a1.125 1.125 0 0 1-.414-.259.804.804 0 0 1-.31-.413zm2.172-1.81c.051.154.103.31.103.516l-2.482-.051c0-.155.052-.31.103-.466.037-.108.098-.192.168-.285.03-.04.06-.082.091-.128.103-.104.258-.207.414-.31a1.53 1.53 0 0 1 .517-.104c.207 0 .362.052.517.103.155.104.258.207.362.31.103.104.155.26.207.414zM54.038 53.263a1.86 1.86 0 0 1-.103-.57v-.154h3.154v-.31c0-.272-.04-.503-.084-.764l-.02-.116a5.21 5.21 0 0 0-.361-.775c-.155-.259-.362-.414-.62-.57-.208-.154-.518-.206-.88-.206-.31 0-.569.103-.827.207-.259.103-.466.31-.672.517-.156.207-.31.465-.414.776a3.01 3.01 0 0 0-.155.982c0 .362.051.672.155.983.103.31.258.568.413.775.207.207.414.414.673.517.258.155.569.207.879.207.724 0 1.344-.31 1.758-.93l-.569-.518c-.103.207-.31.414-.465.517-.155.155-.362.207-.62.207-.208 0-.363-.051-.518-.103a1.127 1.127 0 0 1-.414-.259.804.804 0 0 1-.31-.413zm2.224-1.81c.051.154.103.31.103.516l-2.482-.051c0-.155.051-.31.103-.466.037-.108.098-.192.168-.285.03-.04.06-.082.09-.128.104-.104.26-.207.414-.31a1.53 1.53 0 0 1 .518-.104c.206 0 .362.052.517.103.155.104.258.207.362.31.103.104.155.26.206.414z" fill="#fff"/>
    <path d="M58.071 50.056h.776v.725c.052-.104.103-.26.207-.362.103-.104.155-.207.258-.259.104-.052.207-.155.362-.155.104-.052.259-.052.362-.052.104 0 .259 0 .362.052l-.052.93c-.051 0-.103-.051-.206-.051h-.207c-.362 0-.672.103-.88.362-.206.258-.31.62-.31 1.138v2.327h-.775v-4.654h.103z" fill="#fff"/>
    <path fill-rule="evenodd" clip-rule="evenodd" d="M61.226 47.885a.834.834 0 0 0-.155.465c0 .207.052.362.155.465.156.156.259.207.414.207.155 0 .31-.103.414-.207a.834.834 0 0 0 .155-.465c0-.207-.052-.362-.155-.465-.155-.156-.259-.207-.414-.207-.155 0-.31.103-.414.207zm.828 2.172h-.776v4.654h.776v-4.654z" fill="#fff"/>
    <path d="M63.243 50.056h.776v.725c.103-.26.258-.466.517-.621.258-.155.517-.207.827-.207.207 0 .362.052.57.103.206.052.31.156.464.31.156.156.259.311.31.57.104.206.104.517.104.827v3h-.776v-2.741c0-.207 0-.414-.051-.57a.833.833 0 0 0-.207-.361c-.103-.104-.207-.155-.31-.207-.104-.052-.207-.052-.362-.052-.156 0-.31.052-.466.104-.155.051-.258.155-.362.258-.103.104-.155.31-.258.466a2.696 2.696 0 0 0-.104.724v2.378h-.775v-4.706h.103z" fill="#fff"/>
    <path fill-rule="evenodd" clip-rule="evenodd" d="M71.826 55.641c.104-.31.156-.62.156-.982v-4.654h-.776v.672c-.155-.258-.362-.414-.62-.569a1.46 1.46 0 0 0-.776-.207c-.31 0-.57.104-.828.207-.207.104-.465.31-.62.517-.155.207-.31.466-.414.776a3.011 3.011 0 0 0 0 1.913c.104.31.259.57.414.776.207.207.413.414.672.517.259.155.517.207.827.207.259 0 .517-.052.776-.207s.466-.362.62-.62v.672c0 .155 0 .362-.051.569-.052.206-.155.362-.259.517-.155.155-.258.258-.465.362a1.653 1.653 0 0 1-.724.155c-.259 0-.569-.104-.776-.207-.207-.155-.413-.31-.62-.569l-.517.724c.31.31.62.569.93.672.31.156.673.207 1.035.207.31 0 .62-.051.879-.155.258-.155.465-.31.672-.517.207-.207.362-.465.465-.776zm-2.38-4.835a1.74 1.74 0 0 1 .467-.078c.171 0 .307.036.466.078l.103.026c.155.052.31.155.413.31.104.155.207.31.259.517.052.207.103.414.103.673 0 .465-.103.827-.362 1.137a1.324 1.324 0 0 1-.982.414c-.414 0-.724-.104-.983-.414-.258-.31-.362-.672-.362-1.137 0-.259.052-.466.104-.673.052-.206.155-.362.258-.517.104-.103.259-.207.414-.31l.102-.026zM75.705 47.73h2.069c.258 0 .517.051.723.103.207.052.414.155.57.31.154.155.31.31.361.517.104.207.155.466.155.776 0 .414-.103.724-.31.983-.207.258-.465.413-.724.568.207 0 .362.052.517.155.155.104.31.207.414.362.103.156.207.31.258.518.052.206.104.413.104.672 0 .31-.052.569-.155.827a1.412 1.412 0 0 1-.466.62c-.206.156-.413.311-.672.363-.258.103-.517.103-.827.103h-2.069V47.73h.052zm.776 2.895h1.085c.156 0 .31 0 .414-.052a.833.833 0 0 0 .362-.206c.103-.104.207-.207.259-.31.051-.104.103-.311.103-.466 0-.259-.052-.517-.207-.724-.155-.207-.413-.31-.724-.31h-1.292v2.068zm1.189 3.259h-1.19v-2.43h1.19c.362 0 .724.102.93.31.26.206.363.517.363.93 0 .259-.052.466-.155.62a.727.727 0 0 1-.31.363 3.557 3.557 0 0 1-.415.155c-.155.052-.31.052-.413.052z" fill="#fff"/>
    <path d="M84.392 54.71h-.775v-.723a1.207 1.207 0 0 1-.517.62c-.259.155-.518.207-.828.207-.207 0-.362-.052-.569-.103a1.22 1.22 0 0 1-.465-.31 1.022 1.022 0 0 1-.31-.57c-.104-.206-.104-.517-.104-.827v-3h.776v2.742c0 .206 0 .413.052.568a.834.834 0 0 0 .206.362c.104.104.207.155.31.207.104.052.208.052.363.052s.31-.052.465-.104c.155-.051.259-.155.362-.258.103-.104.155-.31.259-.465.051-.207.103-.414.103-.724v-2.38h.776v4.707h-.104zM87.702 51.194c-.103-.155-.207-.259-.31-.31a.834.834 0 0 0-.466-.155c-.207 0-.362.051-.465.155-.155.103-.207.207-.207.413 0 .156.052.26.103.31.052.104.156.156.259.208.103.051.207.103.31.103.104.052.207.052.31.052l.466.155c.155.052.258.155.362.258.103.104.207.259.259.362.051.156.103.31.103.57 0 .258-.052.465-.155.672-.104.206-.207.361-.362.465-.155.103-.31.207-.517.259-.207.051-.414.103-.57.103-.31 0-.62-.052-.878-.155-.259-.104-.466-.31-.672-.672l.568-.57c.104.156.259.26.414.363.155.103.362.155.569.155.103 0 .207 0 .31-.052a.395.395 0 0 0 .259-.103c.051-.052.155-.104.207-.207.051-.052.051-.155.051-.259 0-.155-.052-.258-.103-.31-.052-.103-.155-.155-.259-.207-.103-.052-.207-.103-.31-.103-.103-.052-.207-.052-.31-.052l-.466-.155c-.155-.052-.258-.155-.413-.259-.104-.103-.207-.206-.259-.362a1.859 1.859 0 0 1-.103-.569c0-.258.051-.465.155-.62.103-.155.207-.31.362-.465.155-.104.31-.207.517-.259.207-.052.362-.103.569-.103.258 0 .517.051.775.155.259.103.466.31.57.569l-.673.62z" fill="#fff"/>
    <path fill-rule="evenodd" clip-rule="evenodd" d="M89.357 47.885a.834.834 0 0 0-.155.465c0 .207.052.362.155.465.155.156.259.207.414.207.155 0 .31-.103.414-.207a.834.834 0 0 0 .155-.465c0-.207-.052-.362-.155-.465-.156-.156-.259-.207-.414-.207-.155 0-.31.103-.414.207zm.776 2.172h-.776v4.654h.776v-4.654z" fill="#fff"/>
    <path d="M91.374 50.056h.776v.725c.103-.26.258-.466.517-.621.258-.155.517-.207.827-.207.207 0 .362.052.569.103.207.052.31.156.465.31.155.156.259.311.31.57.104.206.104.517.104.827v3h-.776v-2.741c0-.207 0-.414-.051-.57a.833.833 0 0 0-.207-.361c-.104-.104-.207-.155-.31-.207-.104-.052-.207-.052-.362-.052-.156 0-.31.052-.466.104-.155.051-.258.155-.362.258-.103.104-.155.31-.258.466a2.696 2.696 0 0 0-.104.724v2.378h-.776v-4.706h.104z" fill="#fff"/>
    <path fill-rule="evenodd" clip-rule="evenodd" d="M96.752 53.263a1.86 1.86 0 0 1-.103-.57v-.154h3.154v-.31c0-.272-.04-.503-.084-.764a30.394 30.394 0 0 1-.02-.116 5.22 5.22 0 0 0-.361-.775c-.155-.259-.362-.414-.62-.57-.208-.154-.518-.206-.88-.206-.31 0-.569.103-.827.207-.259.103-.466.31-.673.517-.155.207-.31.465-.413.776-.104.31-.156.62-.156.982s.052.672.156.983c.103.31.207.568.413.775.207.207.414.414.673.517.258.155.568.207.879.207.724 0 1.344-.31 1.758-.93l-.569-.518c-.103.207-.31.414-.465.517-.156.155-.362.207-.62.207-.208 0-.363-.051-.518-.103a1.126 1.126 0 0 1-.414-.259.805.805 0 0 1-.31-.413zm2.172-1.81c.051.154.103.31.103.516l-2.482-.051c0-.155.052-.31.103-.466.037-.108.098-.192.168-.285.03-.04.06-.082.09-.128a2.87 2.87 0 0 1 .415-.31 1.53 1.53 0 0 1 .517-.104c.207 0 .362 0 .517.103.155.104.258.207.362.31.103.104.155.26.207.414z" fill="#fff"/>
    <path d="M102.905 51.194c-.103-.155-.207-.259-.31-.31a.834.834 0 0 0-.466-.155c-.206 0-.362.051-.465.155-.155.103-.207.207-.207.413 0 .156.052.26.104.31.051.104.155.156.258.208.104.051.207.103.31.103.104.052.207.052.311.052l.465.155c.155.052.259.155.362.258.103.104.207.259.259.362.051.156.103.31.103.57 0 .258-.052.465-.155.672-.104.206-.207.361-.362.465-.155.103-.31.207-.517.259-.207.051-.414.103-.569.103-.31 0-.621-.052-.879-.155-.259-.104-.466-.31-.672-.672l.568-.57c.104.156.259.26.414.363.155.103.362.155.569.155.103 0 .207 0 .31-.052a.396.396 0 0 0 .259-.103c.051-.052.155-.104.207-.207.051-.052.051-.155.051-.259 0-.155-.051-.258-.103-.31-.052-.103-.155-.155-.259-.207-.103-.052-.206-.103-.31-.103-.103-.052-.207-.052-.31-.052l-.466-.155c-.155-.052-.258-.155-.413-.259-.104-.103-.207-.206-.259-.362a1.85 1.85 0 0 1-.103-.569c0-.258.051-.465.155-.62.103-.155.207-.31.362-.465.155-.104.31-.207.517-.259.207-.052.362-.103.569-.103.258 0 .517.051.775.155.259.103.466.31.569.569l-.672.62zM106.68 51.194c-.103-.155-.206-.259-.31-.31a.833.833 0 0 0-.465-.155c-.207 0-.362.051-.466.155-.155.103-.206.207-.206.413 0 .156.051.26.103.31.052.104.155.156.258.208.104.051.207.103.311.103.103.052.207.052.31.052l.465.155c.156.052.259.155.362.258.104.104.207.259.259.362.052.156.103.31.103.57 0 .258-.051.465-.155.672-.103.206-.207.361-.362.465-.155.103-.31.207-.517.259-.207.051-.414.103-.569.103-.31 0-.62-.052-.879-.155-.258-.104-.465-.31-.672-.672l.569-.57c.103.156.258.26.414.363.155.103.361.155.568.155.104 0 .207 0 .311-.052a.395.395 0 0 0 .258-.103c.052-.052.155-.104.207-.207.052-.052.052-.155.052-.259 0-.155-.052-.258-.104-.31-.051-.103-.155-.155-.258-.207-.104-.052-.207-.103-.311-.103-.103-.052-.206-.052-.31-.052l-.465-.155c-.155-.052-.259-.155-.414-.259-.103-.103-.207-.206-.258-.362a1.85 1.85 0 0 1-.104-.569c0-.258.052-.465.155-.62.104-.155.207-.31.362-.465.155-.104.311-.207.517-.259.207-.052.362-.103.569-.103.259 0 .517.051.776.155.258.103.465.31.569.569l-.673.62z" fill="#fff"/>
    <path fill-rule="evenodd" clip-rule="evenodd" d="M112.368 54.607a3.126 3.126 0 0 0 2.483 0c.362-.207.724-.465.982-.776a3.42 3.42 0 0 0 .621-1.137 4.49 4.49 0 0 0 .258-1.448 4.49 4.49 0 0 0-.258-1.448c-.156-.414-.362-.828-.621-1.138-.258-.31-.62-.569-.982-.775a3.332 3.332 0 0 0-1.241-.259c-.414 0-.88.052-1.242.259-.362.206-.724.465-.982.775-.259.31-.465.672-.621 1.138a4.49 4.49 0 0 0-.258 1.448c0 .517.103.982.258 1.448.156.413.362.827.621 1.137.258.31.62.57.982.776zm2.172-.828c-.258.155-.569.207-.931.207-.362 0-.672-.051-.931-.207-.31-.155-.517-.362-.723-.62a2.39 2.39 0 0 1-.466-.88 3.953 3.953 0 0 1-.155-1.085c0-.414.052-.724.155-1.086.104-.31.259-.62.466-.88.206-.258.465-.465.723-.62.259-.155.569-.207.931-.207.362 0 .673.052.931.207.31.155.517.362.724.62.207.26.362.518.465.88.104.362.156.724.156 1.086 0 .413-.052.724-.156 1.086-.103.31-.258.62-.465.879a2.715 2.715 0 0 1-.724.62z" fill="#fff"/>
    <path d="M121.262 54.71h-.775v-.723a1.213 1.213 0 0 1-.517.62c-.259.155-.517.207-.828.207-.207 0-.362-.052-.569-.103a1.22 1.22 0 0 1-.465-.31 1.017 1.017 0 0 1-.31-.57c-.104-.206-.104-.517-.104-.827v-3h.776v2.742c0 .206 0 .413.052.568a.821.821 0 0 0 .207.362c.103.104.206.155.31.207.103.052.207.052.362.052s.31-.052.465-.104c.155-.051.259-.155.362-.258.104-.104.155-.31.259-.465.051-.207.103-.414.103-.724v-2.38h.776v4.707h-.104zM124.573 50.78h-1.086V53.314c0 .104.051.259.051.362.052.104.104.207.156.259.051.051.206.103.31.103.103 0 .207 0 .258-.051a.396.396 0 0 0 .259-.104v.827a.747.747 0 0 1-.362.104c-.155 0-.259.051-.31.051-.311 0-.517-.051-.673-.155a1.215 1.215 0 0 1-.362-.362c-.051-.155-.103-.31-.155-.517V50.78h-.879v-.775h.879v-1.293h.776v1.293h1.086l.052.775zM128.45 51.297c-.155-.155-.31-.31-.465-.413a1.043 1.043 0 0 0-.569-.155c-.207 0-.414.051-.569.155-.155.103-.31.207-.413.362-.104.155-.207.31-.259.517a2.58 2.58 0 0 0-.103.62c0 .207.051.414.103.621.052.207.155.362.259.517.103.155.258.259.413.362.155.103.362.103.517.103.207 0 .414-.051.569-.155.155-.103.31-.207.414-.413l.517.62c-.207.259-.414.466-.672.569a2.144 2.144 0 0 1-.828.155c-.31 0-.62-.051-.827-.155a1.575 1.575 0 0 1-.672-.517c-.207-.207-.311-.466-.414-.776a3.023 3.023 0 0 1-.155-.982c0-.362.052-.672.155-.983.103-.31.259-.569.414-.775.207-.207.413-.362.672-.517.259-.104.569-.207.879-.207.31 0 .569.051.827.206.259.104.518.31.724.57l-.517.672z" fill="#fff"/>
    <path fill-rule="evenodd" clip-rule="evenodd" d="M129.64 51.453a2.493 2.493 0 0 0-.156.93c0 .31.052.673.156.983.103.31.258.569.465.776.207.207.414.413.672.517.259.155.517.207.828.207.31 0 .568-.104.827-.207.258-.104.465-.31.672-.517.207-.207.362-.466.466-.776a3.022 3.022 0 0 0 0-1.913 1.953 1.953 0 0 0-.466-.776 3.335 3.335 0 0 0-.672-.517c-.259-.155-.517-.207-.827-.207-.311 0-.569.103-.828.207-.258.103-.465.31-.672.517a1.94 1.94 0 0 0-.465.776zm.723 1.603a2.609 2.609 0 0 1-.103-.673c0-.258.051-.465.103-.672.052-.207.155-.362.259-.517.103-.104.258-.207.413-.31l.103-.027c.159-.041.295-.077.466-.077.207 0 .414 0 .569.104.155.051.31.155.414.31.103.155.207.31.258.517.052.207.104.414.104.672 0 .259-.052.466-.104.673-.051.206-.155.361-.258.517-.104.103-.259.206-.414.31l-.102.026c-.16.042-.295.077-.467.077-.207 0-.413 0-.569-.103a.801.801 0 0 1-.413-.31c-.104-.156-.207-.31-.259-.517z" fill="#fff"/>
    <path d="M134.708 50.056h.724v.725c0-.052.052-.156.155-.26a.622.622 0 0 1 .259-.258c.103-.103.258-.155.413-.206.155-.052.311-.104.517-.104.311 0 .569.052.776.207.207.155.362.362.517.672.155-.31.311-.517.569-.672.259-.155.465-.207.724-.207.31 0 .569.052.776.155.207.104.362.259.465.466.104.207.207.413.259.672.051.258.051.517.051.776v2.74h-.775v-2.585c0-.155 0-.362-.052-.517a.985.985 0 0 0-.103-.414c-.052-.104-.156-.207-.259-.31a1.032 1.032 0 0 0-.465-.104c-.362 0-.621.155-.776.414-.155.258-.259.62-.259 1.034v2.534h-.775v-2.43c0-.207 0-.414-.052-.621 0-.207-.052-.362-.103-.465a.533.533 0 0 0-.259-.31 1.032 1.032 0 0 0-.465-.104c-.156 0-.259.052-.414.103a.528.528 0 0 0-.31.259c-.104.103-.155.258-.207.465-.052.207-.104.414-.104.673v2.43h-.775l-.052-4.758z" fill="#fff"/>
    <path fill-rule="evenodd" clip-rule="evenodd" d="M142.619 53.263a1.88 1.88 0 0 1-.103-.57v-.154h3.154v-.31c0-.272-.039-.503-.084-.764l-.019-.116c-.104-.258-.207-.517-.362-.775-.155-.259-.362-.414-.621-.57-.207-.154-.517-.206-.879-.206-.31 0-.569.103-.827.207-.259.103-.466.31-.672.517a2.71 2.71 0 0 0-.414.776c-.104.31-.155.62-.155.982s.051.672.155.983c.103.31.258.568.414.775.206.207.413.414.672.517.258.155.569.207.879.207.724 0 1.344-.31 1.758-.93l-.569-.518c-.078.156-.215.283-.344.403a4.267 4.267 0 0 0-.121.114c-.155.155-.362.207-.621.207-.207 0-.362-.051-.517-.103a1.12 1.12 0 0 1-.413-.259.803.803 0 0 1-.311-.413zm2.172-1.81c.052.154.103.31.103.516l-2.482-.051c0-.155.052-.31.104-.466.036-.108.098-.192.167-.285.029-.04.06-.082.091-.128.104-.104.259-.207.414-.31.155-.052.31-.104.517-.104.207 0 .362.052.517.103.155.104.259.207.362.31.103.104.155.26.207.414z" fill="#fff"/>
    <path d="M148.773 51.194c-.103-.155-.207-.259-.31-.31a.833.833 0 0 0-.465-.155c-.207 0-.362.051-.466.155-.155.103-.207.207-.207.413 0 .156.052.26.104.31.051.104.155.156.258.208.104.051.207.103.311.103.103.052.206.052.31.052l.465.155c.155.052.259.155.362.258.104.104.207.259.259.362.051.156.103.31.103.57 0 .258-.052.465-.155.672-.103.206-.207.361-.362.465-.155.103-.31.207-.517.259-.207.051-.414.103-.569.103-.31 0-.62-.052-.879-.155-.259-.104-.465-.31-.672-.672l.569-.57c.103.156.258.26.413.363.155.103.362.155.569.155.104 0 .207 0 .31-.052.104-.052.207-.052.259-.103.052-.052.155-.104.207-.207.051-.052.051-.155.051-.259 0-.155-.051-.258-.103-.31-.052-.103-.155-.155-.258-.207-.104-.052-.207-.103-.311-.103-.103-.052-.207-.052-.31-.052l-.465-.155c-.156-.052-.259-.155-.414-.259-.104-.103-.207-.206-.259-.362a1.88 1.88 0 0 1-.103-.569c0-.258.052-.465.155-.62.103-.155.207-.31.362-.465.155-.104.31-.207.517-.259.207-.052.362-.103.569-.103.259 0 .517.051.776.155.258.103.465.31.568.569l-.672.62z" fill="#fff"/>
</svg>
